<svg width="1439" height="222" viewBox="0 0 1439 222" fill="none" xmlns="http://www.w3.org/2000/svg">
<path fill-rule="evenodd" clip-rule="evenodd" d="M0 0V200H22.3755C93.9857 134.513 245.361 33.7914 424.725 26.4885C552.027 21.3052 620.726 58.2714 688.395 94.6831C754.306 130.149 819.24 165.09 936.401 160.041C1126.36 151.856 1350.62 67.5954 1439 26.4885V0H0Z" fill="#24A148"/>
<path fill-rule="evenodd" clip-rule="evenodd" d="M0 195.971C57.8084 134.221 223.685 8.67396 424.725 0.488468C552.027 -4.69475 620.726 32.2714 688.395 68.6831C754.306 104.149 819.24 139.09 936.401 134.041C1126.36 125.856 1350.62 41.5954 1439 0.488468V26.4885C1350.62 67.5954 1126.36 151.856 936.401 160.041C819.24 165.09 754.306 130.149 688.395 94.6831C620.726 58.2714 552.027 21.3052 424.725 26.4885C223.685 34.674 57.8084 160.221 0 221.971V195.971Z" fill="#7FD096"/>
</svg>
