<svg width="58" height="51" viewBox="0 0 58 51" fill="none" xmlns="http://www.w3.org/2000/svg">
<path d="M39.0772 7.48943C44.1981 9.13053 50.2674 11.6122 53.9089 16.5755C57.5505 21.5389 58.7643 28.9438 56.3746 34.5876C53.9469 40.2314 47.8776 44.114 42.1497 46.6757C36.4598 49.1974 31.0733 50.4382 25.611 50.6384C20.1107 50.7985 14.4967 49.9579 11.0448 46.5957C7.63082 43.2734 6.37903 37.4695 4.40652 31.7857C2.47195 26.0619 -0.145423 20.4581 0.00630841 14.5342C0.15804 8.57016 3.11681 2.28594 7.85842 0.564787C12.6 -1.19639 19.1624 1.56546 24.511 3.32664C29.8595 5.12785 33.9942 5.84833 39.0772 7.48943Z" fill="#3E3E3E"/>
</svg>
