<svg width="58" height="52" viewBox="0 0 58 52" fill="none" xmlns="http://www.w3.org/2000/svg">
<path d="M39.292 7.86852C44.4129 9.50962 50.4822 11.9913 54.1237 16.9546C57.7653 21.9179 58.9791 29.3229 56.5894 34.9667C54.1617 40.6105 48.0924 44.4931 42.3645 47.0548C36.6746 49.5765 31.2881 50.8173 25.8258 51.0175C20.3255 51.1776 14.7115 50.337 11.2596 46.9747C7.8456 43.6525 6.59382 37.8486 4.62131 32.1648C2.68673 26.441 0.0693596 20.8372 0.221091 14.9132C0.372823 8.94924 3.33159 2.66503 8.0732 0.943876C12.8148 -0.817305 19.3772 1.94455 24.7257 3.70573C30.0743 5.50694 34.209 6.22742 39.292 7.86852Z" fill="#24A148"/>
</svg>
