<svg width="72" height="72" viewBox="0 0 72 72" fill="none" xmlns="http://www.w3.org/2000/svg">
<path d="M46.292 18.8685C51.4129 20.5096 57.4822 22.9913 61.1237 27.9546C64.7653 32.9179 65.9791 40.3229 63.5894 45.9667C61.1617 51.6105 55.0924 55.4931 49.3645 58.0548C43.6746 60.5765 38.2881 61.8173 32.8258 62.0175C27.3255 62.1776 21.7115 61.337 18.2596 57.9747C14.8456 54.6525 13.5938 48.8486 11.6213 43.1648C9.68673 37.441 7.06936 31.8372 7.22109 25.9132C7.37282 19.9492 10.3316 13.665 15.0732 11.9439C19.8148 10.1827 26.3772 12.9445 31.7257 14.7057C37.0743 16.5069 41.209 17.2274 46.292 18.8685Z" fill="white"/>
</svg>
