<svg width="177" height="177" viewBox="0 0 177 177" fill="none" xmlns="http://www.w3.org/2000/svg">
<path d="M177 88.5C177 141.627 141.627 177 88.5 177C35.3726 177 0 141.627 0 88.5C0 35.3726 35.3726 0 88.5 0C141.627 0 177 35.3726 177 88.5Z" fill="#24A148"/>
<path d="M66.8442 47V96.8785C64.5185 96.5152 62.016 96.6269 59.5133 97.4139C52.0195 99.77 47.5634 106.824 49.5609 113.17C51.556 119.502 59.2504 122.734 66.7419 120.378C72.4876 118.571 76.9365 113.999 77.5744 109.115V66.0644L113.187 72.8367V105.716C110.907 105.38 108.46 105.497 106.018 106.267C98.5246 108.631 94.0686 115.684 96.0661 122.017C98.0591 128.361 105.753 131.585 113.247 129.229C119.205 127.353 123.518 122.501 123.916 117.412V56.8361L66.8442 47Z" fill="#F2F4F8"/>
</svg>
