<svg width="177" height="177" viewBox="0 0 177 177" fill="none" xmlns="http://www.w3.org/2000/svg">
<path d="M177 88.5C177 141.627 141.627 177 88.5 177C35.3726 177 0 141.627 0 88.5C0 35.3726 35.3726 0 88.5 0C141.627 0 177 35.3726 177 88.5Z" fill="#24A148"/>
<path d="M89.0801 123.35C86.3051 123.35 83.5747 122.885 80.9747 122.026V141.279H97.1856V122.026C94.5856 122.885 91.8552 123.35 89.0801 123.35Z" fill="#F2F4F8"/>
<path d="M122.921 76.1778C123.383 74.5644 123.647 72.8715 123.647 71.1083C123.647 62.4969 117.699 55.2855 109.695 53.3158C107.484 43.9631 99.1046 37 89.0801 37C79.0557 37 70.6767 43.9631 68.4648 53.3158C60.4579 55.2857 54.5134 62.4969 54.5134 71.1083C54.5134 72.8713 54.7743 74.5644 55.2391 76.1778C50.2363 80.0539 47 86.1068 47 92.9297C47 104.641 56.4929 114.134 68.2039 114.134C71.17 114.134 73.9894 113.516 76.5544 112.415C79.9341 115.282 84.3002 117.02 89.0801 117.02C93.8601 117.02 98.2262 115.282 101.606 112.415C104.171 113.516 106.991 114.134 109.956 114.134C121.667 114.134 131.16 104.641 131.16 92.9297C131.16 86.1068 127.924 80.0541 122.921 76.1778Z" fill="#F2F4F8"/>
</svg>
