<svg width="177" height="177" viewBox="0 0 177 177" fill="none" xmlns="http://www.w3.org/2000/svg">
<path d="M177 88.5C177 141.627 141.627 177 88.5 177C35.3726 177 0 141.627 0 88.5C0 35.3726 35.3726 0 88.5 0C141.627 0 177 35.3726 177 88.5Z" fill="#24A148"/>
<path d="M130.746 62.5837C127.893 57.6583 123.235 53.3578 117.369 49.9325C112.037 46.8251 105.662 44.4951 98.6771 43.1075C98.5537 41.6547 97.9961 40.3033 97.0789 39.2428C96.0455 38.0516 94.5492 37.2159 92.8528 37.0399C92.6259 37.0145 92.397 37 92.1683 37C89.2226 37.0128 86.7254 38.985 85.8789 41.7311C85.6011 41.7256 85.3178 41.7127 85.04 41.7127C74.6664 41.7164 65.2316 44.0556 58.0526 48.1998C54.4658 50.274 51.4403 52.813 49.1899 55.7786C46.9379 58.7408 45.4778 62.1515 45.0965 65.8381C45.033 66.4446 45.0002 67.0367 45.0002 67.6143C44.9839 70.6201 45.9281 73.2988 47.6718 75.3253C49.0573 76.9526 50.859 78.1441 52.9093 79.0812L52.59 89.858C51.6545 90.559 50.7647 91.5051 50.1019 92.7493C49.2975 94.2475 48.9031 96.0109 48.905 97.9286C48.905 99.5741 49.1828 101.328 49.7349 103.264C51.1042 108.021 52.3664 111.273 54.188 113.858L54.1917 113.863C55.1161 115.16 56.1966 116.242 57.408 117.078L57.3917 117.07C57.5514 117.183 57.6932 117.245 57.8494 117.343C60.8894 126.521 65.7512 132.698 71.2922 136.356C77.1653 140.25 83.4273 141.279 88.3979 141.279C93.3687 141.279 99.6287 140.25 105.506 136.354C107.182 135.242 108.76 133.851 110.268 132.292H110.607L111.317 131.467C113.978 128.374 117.076 124.015 118.718 118.077C118.754 117.975 118.785 117.877 118.816 117.775C119.19 117.577 119.575 117.35 119.96 117.078V117.082C119.966 117.078 119.967 117.074 119.969 117.074C119.974 117.071 119.978 117.071 119.984 117.065C121.809 115.801 123.287 114.011 124.462 111.775C125.643 109.546 126.614 106.846 127.64 103.272C128.192 101.329 128.47 99.5743 128.47 97.9325C128.47 96.0292 128.082 94.2729 127.279 92.7674L127.284 92.7784L127.277 92.764C127.275 92.7621 127.275 92.7603 127.273 92.7566C127.272 92.753 127.268 92.7493 127.266 92.7438L127.27 92.7495C126.601 91.4926 125.704 90.5629 124.782 89.8726L124.669 86.0298C126.738 85.4013 128.606 84.4316 130.117 82.957C132.104 81.0319 133.297 78.3168 133.621 75.0768C133.69 74.4212 133.722 73.7692 133.722 73.1173C133.724 69.4376 132.646 65.8617 130.746 62.5837ZM98.6916 44.4006L98.6934 44.3914L98.6916 44.4116C98.6916 44.4116 98.6916 44.4044 98.6916 44.4006ZM120.963 101.359C119.699 105.807 118.569 108.393 117.53 109.828C117.013 110.554 116.533 111.007 116.005 111.375C115.476 111.746 114.868 112.036 114.071 112.32L112.816 112.765L112.6 114.001C109.943 122.661 105.882 127.573 101.581 130.437C97.1991 133.35 92.4192 134.182 88.3981 134.182C84.3772 134.182 79.5938 133.35 75.2133 130.437C74.3053 129.834 73.4135 129.111 72.5381 128.31C69.5034 124.989 65.962 120.699 64.7888 114.077L64.5583 112.765L63.3035 112.32C62.5079 112.036 61.8996 111.746 61.371 111.375C60.5865 110.823 59.8763 110.071 59.0484 108.524C58.2292 106.991 57.363 104.694 56.4131 101.359C55.9992 99.901 55.8465 98.7696 55.8465 97.9286C55.8483 96.9535 56.0355 96.385 56.2279 96.0253C56.5168 95.4986 56.8673 95.2772 57.3176 95.0956C57.6972 94.952 58.0875 94.9176 58.2292 94.9157L59.526 95.0522L61.1148 98.6044C61.1148 98.6044 61.5126 89.2407 67.3459 80.0492C73.4627 80.7865 80.5855 81.2313 88.1531 82.0232C97.2645 82.9747 105.624 84.2678 112.534 84.6383C115.985 92.1155 116.259 98.6042 116.259 98.6042L117.768 95.2335L119.236 94.9155C119.508 94.9392 120.077 95.0355 120.474 95.2988C120.738 95.4695 120.95 95.6638 121.146 96.0251C121.335 96.3848 121.522 96.953 121.528 97.9321C121.527 98.7749 121.377 99.9065 120.963 101.359Z" fill="#F2F4F8"/>
<path d="M92.8438 37.0381C92.8455 37.0381 92.8474 37.04 92.853 37.04C92.8549 37.04 92.8606 37.04 92.8623 37.04L92.8438 37.0381Z" fill="#F2F4F8"/>
</svg>
