<svg width="96" height="96" viewBox="0 0 96 96" fill="none" xmlns="http://www.w3.org/2000/svg">
<g clip-path="url(#clip0_185_711)">
<path d="M95.41 14.1956C94.5574 10.8637 92.8171 7.87669 90.4709 5.5305C87.0736 2.11706 82.3139 0 77.128 0H18.8717C13.6697 0 8.91024 2.11688 5.51593 5.5305C3.16674 7.87669 1.42937 10.8637 0.573619 14.1956C0.198619 15.6874 -0.000130537 17.2628 -0.000130537 18.8719V27.0112V77.1281C-0.0162555 82.314 2.11843 87.072 5.51593 90.4695C8.91024 93.8829 13.6697 96 18.8717 96H77.128C82.3139 96 87.0734 93.8829 90.4709 90.4695C93.8684 87.072 95.9999 82.314 95.9999 77.1281V26.9953V18.8719C95.9999 17.2628 95.8043 15.6874 95.41 14.1956ZM84.5127 77.1281C84.4966 79.1794 83.6922 81.0015 82.3461 82.3461C80.9837 83.6923 79.1794 84.5128 77.128 84.5128H18.8717C16.8044 84.5128 14.9999 83.6923 13.6377 82.3461C12.2914 81.0015 11.4871 79.1794 11.4871 77.1281V37.4968L35.2658 59.1746C38.8589 62.4566 43.4389 64.0976 47.9837 64.0976C52.5447 64.0976 57.1247 62.4566 60.7178 59.1746L84.5127 37.4807V77.1281ZM84.5127 24.1234L54.0736 51.8893C52.3493 53.4806 50.1827 54.2514 47.9839 54.2514C45.8012 54.2514 43.6347 53.4806 41.9134 51.8893L11.4871 24.1393V18.8719C11.4871 16.8206 12.2914 14.9985 13.6377 13.6539C14.9999 12.3077 16.8044 11.4872 18.8717 11.4872H77.128C79.1792 11.4872 80.9837 12.3077 82.3461 13.6537C83.6922 14.9983 84.4966 16.8204 84.5127 18.8717V24.1234Z" fill="white"/>
</g>
<defs>
<clipPath id="clip0_185_711">
<rect width="96" height="96" fill="white"/>
</clipPath>
</defs>
</svg>
