<svg width="391" height="215" viewBox="0 0 391 215" fill="none" xmlns="http://www.w3.org/2000/svg">
<rect width="391" height="215" rx="60" fill="white"/>
<path d="M283.778 95.1031L263.617 92.1708C262.354 92.0743 261.265 91.2804 260.781 90.1101L254.245 74.3368C253.756 73.1708 253.959 71.8351 254.787 70.8774L266.849 54.6735C268.765 52.4279 268.639 49.0803 266.549 46.9902L257.003 37.449C254.918 35.359 251.565 35.2234 249.325 37.1491L233.116 49.2061C232.163 50.0293 230.818 50.2419 229.656 49.7581L213.879 43.2169C212.712 42.7381 211.914 41.6302 211.812 40.3818L208.89 20.2251C208.658 17.2739 206.2 15 203.249 15H189.749C186.794 15 184.336 17.2739 184.108 20.2251L181.176 40.3818C181.084 41.6399 180.286 42.7381 179.12 43.2169L163.337 49.7581C162.171 50.2419 160.836 50.0293 159.873 49.2061L143.674 37.1491C141.434 35.2283 138.086 35.3585 135.991 37.449L126.45 46.9902C124.36 49.0803 124.234 52.4284 126.149 54.6735L138.207 70.8818C139.024 71.8352 139.242 73.1752 138.754 74.3368L132.217 90.1101C131.743 91.2809 130.64 92.0743 129.387 92.1763L109.216 95.1036C106.274 95.3362 104 97.7939 104 100.75V114.244C104 117.195 106.274 119.663 109.216 119.886L129.387 122.813C130.64 122.915 131.743 123.713 132.217 124.879L138.754 140.652C139.242 141.823 139.025 143.163 138.207 144.117L126.149 160.325C124.233 162.571 124.359 165.908 126.45 168.009L135.991 177.55C138.086 179.64 141.434 179.766 143.674 177.845L159.873 165.783C160.836 164.97 162.171 164.752 163.337 165.241L179.12 171.773C180.286 172.262 181.084 173.355 181.182 174.618L184.109 194.774C184.341 197.721 186.794 200 189.75 200H203.249C206.206 200 208.658 197.721 208.89 194.774L211.813 174.618C211.915 173.355 212.713 172.262 213.879 171.773L229.662 165.241C230.823 164.752 232.168 164.97 233.121 165.783L249.325 177.845C251.565 179.766 254.919 179.64 257.004 177.55L266.549 168.009C268.645 165.908 268.766 162.571 266.85 160.325L254.787 144.117C253.975 143.163 253.757 141.823 254.245 140.652L260.782 124.879C261.266 123.713 262.354 122.915 263.617 122.813L283.779 119.886C286.726 119.663 288.999 117.195 288.999 114.244V100.75C288.999 97.7934 286.725 95.3357 283.778 95.1031ZM218.677 129.678C212.75 135.596 204.879 138.857 196.498 138.857C188.123 138.857 180.241 135.596 174.319 129.678C168.398 123.747 165.131 115.875 165.131 107.495C165.131 99.1193 168.397 91.2424 174.319 85.32C180.241 79.3878 188.123 76.1367 196.498 76.1367C204.879 76.1367 212.751 79.3878 218.677 85.32C224.599 91.2419 227.861 99.1193 227.861 107.495C227.861 115.875 224.6 123.747 218.677 129.678Z" fill="#5FABF8"/>
</svg>
