<svg width="391" height="215" viewBox="0 0 391 215" fill="none" xmlns="http://www.w3.org/2000/svg">
<rect width="391" height="215" rx="60" fill="white"/>
<mask id="mask0_343_318" style="mask-type:alpha" maskUnits="userSpaceOnUse" x="0" y="0" width="391" height="215">
<rect width="391" height="215" rx="60" fill="white"/>
</mask>
<g mask="url(#mask0_343_318)">
<path d="M190.967 192.48V201.589C190.967 204.196 193.079 206.31 195.688 206.31C198.297 206.31 200.408 204.196 200.408 201.589V192.48C200.408 189.873 198.297 187.759 195.688 187.759C193.079 187.759 190.967 189.873 190.967 192.48Z" fill="#4B4B4B"/>
<path d="M197.647 169V184.09C201.464 184.982 204.321 188.396 204.321 192.48V201.589C204.321 206.351 200.451 210.223 195.688 210.223C190.928 210.223 187.052 206.351 187.052 201.589V192.48C187.052 188.396 189.916 184.982 193.733 184.09V169C180.464 170.003 170 181.066 170 194.588V220.314C170 234.498 181.5 246 195.688 246C209.873 246 221.376 234.498 221.376 220.314V194.588C221.376 181.066 210.915 170.003 197.647 169Z" fill="#4B4B4B"/>
</g>
<path d="M236.83 155L241.899 177.397L214.899 161.808L236.83 155Z" fill="#D9D9D9"/>
<path d="M156.588 155L178.519 161.808L151.519 177.397L156.588 155Z" fill="#D9D9D9"/>
<circle cx="283.5" cy="88.5" r="70.5" fill="#FFB800"/>
<path d="M239.944 130.776V121.608C239.496 122.072 239.032 122.512 238.552 122.928C238.072 123.328 237.592 123.712 237.112 124.08C237.048 123.952 236.912 123.776 236.704 123.552C236.496 123.328 236.288 123.112 236.08 122.904C235.872 122.68 235.712 122.536 235.6 122.472C236.896 121.64 238.168 120.52 239.416 119.112C240.664 117.704 241.768 116.168 242.728 114.504H236.56V112.536H243.736C244.328 111.304 244.784 110.04 245.104 108.744L247.384 109.128C247.224 109.704 247.04 110.28 246.832 110.856C246.624 111.416 246.392 111.976 246.136 112.536H257.464V114.504H245.176C244.744 115.32 244.272 116.112 243.76 116.88C243.264 117.648 242.736 118.384 242.176 119.088V130.776H239.944ZM243.304 129.528V127.56H249.04V121.776H244.096V119.856H249.04V115.608H251.296V119.856H256.504V121.776H251.296V127.56H257.32V129.528H243.304ZM271.264 130.824V123.72H267.736V130.056H265.576V121.92H271.264V120.408H267.688V116.952H263.872V119.016C263.872 120.824 263.784 122.432 263.608 123.84C263.432 125.248 263.152 126.504 262.768 127.608C262.384 128.712 261.88 129.736 261.256 130.68C261.144 130.6 260.952 130.496 260.68 130.368C260.424 130.24 260.168 130.12 259.912 130.008C259.656 129.896 259.464 129.824 259.336 129.792C260.136 128.56 260.728 127.072 261.112 125.328C261.512 123.584 261.712 121.52 261.712 119.136V111.216H270.544V108.816H272.8V111.216H281.272V113.088H276.64V115.128H281.392V116.952H276.64V120.408H273.352V121.92H279.352V127.848C279.352 128.6 279.144 129.144 278.728 129.48C278.312 129.832 277.68 130.008 276.832 130.008H275.104C275.088 129.72 275.032 129.368 274.936 128.952C274.84 128.52 274.744 128.184 274.648 127.944H276.352C276.672 127.944 276.904 127.888 277.048 127.776C277.192 127.664 277.264 127.456 277.264 127.152V123.72H273.352V130.824H271.264ZM269.896 115.128H274.528V113.088H269.896V115.128ZM269.896 118.656H274.528V116.952H269.896V118.656ZM263.872 115.128H267.688V113.088H263.872V115.128ZM288.664 130.608V118.752H301.216V123.672H290.776V125.16H302.152V130.608H288.664ZM284.608 120.36V115.776H293.8V114.024C294.28 113.576 294.728 113.056 295.144 112.464C295.576 111.856 295.952 111.224 296.272 110.568C296.608 109.912 296.864 109.296 297.04 108.72L299.152 109.2C299.056 109.488 298.936 109.784 298.792 110.088C298.664 110.392 298.52 110.704 298.36 111.024H305.368V112.776H301.048C301.208 113.112 301.352 113.464 301.48 113.832C301.624 114.2 301.736 114.512 301.816 114.768C301.64 114.784 301.408 114.832 301.12 114.912C300.832 114.976 300.544 115.04 300.256 115.104C299.984 115.168 299.784 115.224 299.656 115.272C299.576 114.904 299.456 114.488 299.296 114.024C299.136 113.56 298.976 113.144 298.816 112.776H297.376C296.976 113.4 296.576 113.96 296.176 114.456V115.776H305.368V120.36H303.256V117.408H286.72V120.36H284.608ZM289.984 115.296C289.904 114.96 289.784 114.56 289.624 114.096C289.464 113.616 289.296 113.176 289.12 112.776H287.704C287.368 113.256 287.016 113.712 286.648 114.144C286.296 114.56 285.952 114.928 285.616 115.248C285.52 115.168 285.344 115.064 285.088 114.936C284.848 114.792 284.6 114.656 284.344 114.528C284.088 114.384 283.896 114.296 283.768 114.264C284.296 113.816 284.808 113.28 285.304 112.656C285.816 112.016 286.272 111.36 286.672 110.688C287.088 110 287.4 109.36 287.608 108.768L289.696 109.248C289.584 109.536 289.448 109.832 289.288 110.136C289.144 110.424 288.984 110.72 288.808 111.024H294.712V112.776H291.28C291.424 113.112 291.568 113.464 291.712 113.832C291.856 114.184 291.968 114.496 292.048 114.768C291.904 114.784 291.688 114.832 291.4 114.912C291.128 114.976 290.856 115.048 290.584 115.128C290.312 115.192 290.112 115.248 289.984 115.296ZM290.776 128.904H300.016V126.768H290.776V128.904ZM290.776 122.136H299.128V120.312H290.776V122.136ZM315.304 129.792V127.944H321.904V125.136H317.44V123.288H321.904V120.648H317.152V110.088H328.72V120.648H323.968V123.288H328.744V125.136H323.968V127.944H329.848V129.792H315.304ZM308.368 127.944L307.768 125.928C308.2 125.848 308.72 125.736 309.328 125.592C309.952 125.432 310.6 125.272 311.272 125.112V119.4H308.512V117.48H311.272V112.536H308.296V110.592H316.312V112.536H313.36V117.48H315.976V119.4H313.36V124.56C313.984 124.4 314.568 124.24 315.112 124.08C315.656 123.92 316.112 123.784 316.48 123.672V125.592C316.032 125.752 315.456 125.944 314.752 126.168C314.064 126.376 313.328 126.592 312.544 126.816C311.76 127.04 311 127.256 310.264 127.464C309.528 127.656 308.896 127.816 308.368 127.944ZM319.168 118.896H321.904V116.208H319.168V118.896ZM323.968 118.896H326.704V116.208H323.968V118.896ZM319.168 114.528H321.904V111.864H319.168V114.528ZM323.968 114.528H326.704V111.864H323.968V114.528Z" fill="white"/>
<path d="M259 45V92.9996H307V91.3054V45H259ZM303.612 89.6113H262.388V55.446H303.612V89.6113Z" fill="white"/>
<path d="M299.658 60.749H266.341V69.8168H299.658V60.749Z" fill="white"/>
<path d="M299.659 74.0522H286.671V85.2055H299.659V74.0522Z" fill="white"/>
<path d="M281.588 74.2209H266.341V75.915H281.588V74.2209Z" fill="white"/>
<path d="M281.588 83.3425H266.341V85.0367H281.588V83.3425Z" fill="white"/>
<path d="M281.588 78.7822H266.341V80.4764H281.588V78.7822Z" fill="white"/>
<circle cx="107.5" cy="88.5" r="70.5" fill="#FFB800"/>
<path d="M86.072 130.752C86.056 130.56 86.024 130.32 85.976 130.032C85.928 129.76 85.872 129.488 85.808 129.216C85.744 128.944 85.68 128.736 85.616 128.592H87.32C87.64 128.592 87.872 128.536 88.016 128.424C88.16 128.312 88.232 128.104 88.232 127.8V122.808C87.416 123.096 86.68 123.352 86.024 123.576C85.368 123.784 84.928 123.928 84.704 124.008L84.152 121.752C84.536 121.656 85.096 121.504 85.832 121.296C86.584 121.072 87.384 120.824 88.232 120.552V115.68H84.272V113.64H88.232V108.984H90.344V113.64H93.392V115.68H90.344V119.88C91.096 119.624 91.76 119.392 92.336 119.184C92.928 118.96 93.352 118.792 93.608 118.68V120.744C93.4 120.856 92.992 121.032 92.384 121.272C91.792 121.512 91.112 121.768 90.344 122.04V128.592C90.344 129.344 90.136 129.888 89.72 130.224C89.32 130.576 88.696 130.752 87.848 130.752H86.072ZM96.68 130.704C96.664 130.512 96.632 130.272 96.584 129.984C96.536 129.712 96.48 129.432 96.416 129.144C96.352 128.872 96.288 128.656 96.224 128.496H98.576C98.896 128.496 99.128 128.44 99.272 128.328C99.416 128.216 99.488 128.008 99.488 127.704V113.112H93.608V111.048H105.968V113.112H101.672V128.568C101.672 129.304 101.448 129.84 101 130.176C100.568 130.528 99.928 130.704 99.08 130.704H96.68ZM109.496 125.928C109.416 125.8 109.288 125.632 109.112 125.424C108.952 125.2 108.776 124.984 108.584 124.776C108.408 124.568 108.256 124.416 108.128 124.32C108.944 123.968 109.76 123.536 110.576 123.024C111.392 122.512 112.168 121.944 112.904 121.32C112.504 120.952 112.032 120.56 111.488 120.144C110.96 119.712 110.424 119.304 109.88 118.92C109.352 118.52 108.88 118.2 108.464 117.96L109.784 116.328C110.056 116.488 110.352 116.68 110.672 116.904C111.008 117.128 111.352 117.368 111.704 117.624C111.976 117.208 112.264 116.728 112.568 116.184C112.872 115.624 113.128 115.112 113.336 114.648H108.296V112.68H113.696V109.128H116.024V112.68H120.872V114.648H115.664C115.488 115.048 115.256 115.504 114.968 116.016C114.696 116.528 114.416 117.032 114.128 117.528C113.84 118.008 113.568 118.44 113.312 118.824C113.536 119 113.752 119.176 113.96 119.352C114.184 119.528 114.376 119.688 114.536 119.832C115.848 118.52 116.848 117.2 117.536 115.872L119.312 116.904C118.192 118.808 116.768 120.544 115.04 122.112C113.328 123.664 111.48 124.936 109.496 125.928ZM124.136 130.656C124.104 130.352 124.04 129.976 123.944 129.528C123.848 129.08 123.744 128.736 123.632 128.496H125.72C126.04 128.496 126.272 128.44 126.416 128.328C126.56 128.216 126.632 128.008 126.632 127.704V109.128H128.744V128.448C128.744 129.216 128.528 129.776 128.096 130.128C127.68 130.48 127.04 130.656 126.176 130.656H124.136ZM109.568 130.464C109.488 130.32 109.368 130.136 109.208 129.912C109.048 129.688 108.872 129.464 108.68 129.24C108.504 129.032 108.344 128.872 108.2 128.76C109.288 128.344 110.352 127.824 111.392 127.2C112.432 126.576 113.408 125.888 114.32 125.136C115.232 124.368 116.048 123.576 116.768 122.76C117.504 121.944 118.112 121.144 118.592 120.36L120.32 121.464C119.952 122.056 119.528 122.648 119.048 123.24C118.584 123.832 118.072 124.408 117.512 124.968C117.992 125.352 118.488 125.784 119 126.264C119.528 126.744 120.024 127.216 120.488 127.68C120.968 128.144 121.352 128.544 121.64 128.88C121.432 129.04 121.144 129.272 120.776 129.576C120.408 129.88 120.136 130.144 119.96 130.368C119.624 129.952 119.224 129.504 118.76 129.024C118.312 128.544 117.848 128.072 117.368 127.608C116.888 127.128 116.44 126.712 116.024 126.36C115.048 127.208 114.008 127.984 112.904 128.688C111.816 129.392 110.704 129.984 109.568 130.464ZM121.928 125.184V111.216H123.992V125.184H121.928Z" fill="white"/>
<path d="M83 45V92.9996H131V91.3054V45H83ZM127.612 89.6113H86.3882V55.446H127.612V89.6113Z" fill="white"/>
<path d="M123.658 60.749H90.3411V69.8168H123.658V60.749Z" fill="white"/>
<path d="M123.658 74.0522H110.671V85.2055H123.658V74.0522Z" fill="white"/>
<path d="M105.588 74.2209H90.3411V75.915H105.588V74.2209Z" fill="white"/>
<path d="M105.588 83.3425H90.3411V85.0367H105.588V83.3425Z" fill="white"/>
<path d="M105.588 78.7822H90.3411V80.4764H105.588V78.7822Z" fill="white"/>
</svg>
